<?xml version="1.0" encoding="utf-8"?>
<!-- Generator: Adobe Illustrator 21.0.0, SVG Export Plug-In . SVG Version: 6.00 Build 0)  -->
<svg version="1.1" id="图层_1" xmlns="http://www.w3.org/2000/svg" xmlns:xlink="http://www.w3.org/1999/xlink" x="0px" y="0px"
	 viewBox="0 0 120 38" style="enable-background:new 0 0 120 38;" xml:space="preserve">
<style type="text/css">
	.st0{fill:#F4C81E;}
	.st1{fill:#FFFFFF;}
</style>
<path class="st0" d="M44.9,11c-1.6-0.1-3.2,0.2-4.6,0.9C39,5.5,33.6,0.6,26.8,0.3C18.8-0.1,12,6,11.6,14c0,0.1,0,0.3,0,0.4
	C12.2,7.2,18.5,1.6,25.9,2C32.3,2.3,37.4,7,38.6,13c0,0.1,0,0.3,0.1,0.4c0,0.1,0,0.1,0,0.2c0,0.2,0,0.3,0.1,0.5l1.5,0.1
	c0.1-0.1,0.2-0.1,0.4-0.2l0,0c0,0,0,0,0,0c1.5-0.8,3.1-1.2,4.9-1.1c4,0.2,7.4,2.9,8.5,6.6C53.4,14.9,49.6,11.2,44.9,11z"/>
<g>
	<path class="st1" d="M48.3,19.1c-0.7,0-1.3,0.1-1.9,0.2c0.3,0,0.5,0,0.8,0c4.7,0,8.5,3.9,8.5,8.7c0,4.8-3.8,8.7-8.5,8.7
		c-2.4,0-4.6-1-6.2-2.7c1.7,2.3,4.3,3.7,7.3,3.7c5,0,9.1-4.2,9.1-9.3C57.5,23.3,53.4,19.1,48.3,19.1z"/>
	<path class="st1" d="M4.9,26.9c0-5.8,4.7-10.6,10.4-10.6c2.9,0,5.6,1.3,7.5,3.3c-2-2.8-5.3-4.5-8.9-4.5c-6.1,0-11.1,5.1-11.1,11.3
		c0,6.2,5,11.3,11.1,11.3c0.8,0,1.6-0.1,2.3-0.3c-0.3,0-0.6,0-0.9,0C9.6,37.5,4.9,32.8,4.9,26.9z"/>
	<path class="st1" d="M7.2,25.2c-0.3,0-0.6,0.3-0.6,0.6V26c0,0.3,0.3,0.6,0.6,0.6H15c0.3,0,0.6-0.3,0.6-0.6v-0.3
		c0-0.3-0.3-0.6-0.6-0.6H7.2z"/>
	<path class="st1" d="M26.2,30.3c0,0-1.3-1.3-2.8,0l-6.4,7.1c0,0-0.3,0.3,0.1,0.4h1.3c0,0,0.2,0,0.4-0.2c0.2-0.2,5.6-6.2,5.6-6.2
		s0.5-0.5,1,0l5.6,6.2c0,0,0.1,0.2,0.3,0.2h1.3c0,0,0.4-0.1,0.1-0.4C32.3,37.1,26.2,30.3,26.2,30.3z"/>
	<path class="st1" d="M32.5,21.3h-1.3c-0.2,0-0.3,0.2-0.3,0.2l-5.6,6.2c-0.5,0.5-1,0-1,0s-5.4-6-5.6-6.2c-0.2-0.2-0.4-0.2-0.4-0.2
		h-1.3c-0.4,0.1-0.1,0.4-0.1,0.4l6.4,7.1c1.5,1.3,2.8,0,2.8,0s6.1-6.7,6.4-7.1C32.9,21.4,32.5,21.3,32.5,21.3z"/>
	<path class="st1" d="M47,22.6c0-2.3-1.9-4.1-4.1-4.1h-3.3h0h-6.7c-0.3,0-0.6,0.3-0.6,0.6v0.3c0,0.3,0.3,0.6,0.6,0.6h7.8
		c0,0,0.1,0,0.1,0h0.4v0h1.7c1.5,0,2.6,1.2,2.6,2.6c0,1.4-1.2,2.6-2.6,2.6h-0.3h-1.4h-0.4h-4.4H35h-0.2h-0.1c-0.3,0-0.5,0.2-0.6,0.5
		c0,0.1,0,0.1,0,0.2v11.2c0,0.4,0.3,0.7,0.7,0.7H35c0.4,0,0.7-0.3,0.7-0.7V26.7h3.5c0.1,0,0.2,0,0.3,0h3.3
		C45.2,26.7,47,24.8,47,22.6z"/>
</g>
<g>
	<path class="st1" d="M62.7,30.5h5.5c0,0-2.9,4.5-3.5,5.5l0,0c-0.1,0.1-0.1,0.2-0.1,0.3c0,0.4,0.3,0.6,0.6,0.6c0,0,0,0,0,0v0l11-0.5
		l0.3,0.5h1.2l-3.3-5h-1.2l2.3,3.5l-9.7,0.4l3.5-5.5h9.3v-1h-16L62.7,30.5z"/>
	<rect x="66.2" y="26" class="st1" width="9" height="1"/>
	<polygon class="st1" points="70.7,19.7 78.5,28 79.9,28 71.4,19 70,19 61.5,28 62.9,28 	"/>
	<path class="st1" d="M102.1,27h5.5c0,0-3.5,7.7-4.1,8.7l0,0c-0.1,0.1-0.1,0.2-0.1,0.3c0,0.3,0.3,0.6,0.6,0.6c0,0,0,0,0,0l0,0
		l12.1-0.5l0.3,0.5h1.2l-3.3-5h-1.2l2.3,3.5l-10.8,0.4l4.1-8.6h9.3v-1h-16L102.1,27z"/>
	<rect x="103.8" y="19.6" class="st1" width="12.7" height="1"/>
	<polygon class="st1" points="98.1,31.5 96.6,31.5 94.6,33.5 91.8,31.5 90.1,31.5 97.4,37 99.1,37 95.4,34.2 	"/>
	<path class="st1" d="M96.1,29.5v-2h2.5v-1h-2.5V25h-1v1.5h-6.5V25h-1v1.5h-2.5l0,1h2.5v2h-3l0,1h2V35c0,0,0,2,2,2l4-1v-1l-4,1
		c-1,0-1-1-1-1v-4.5h11.5v-1H96.1z M95.1,29.5h-6.5v-2h6.5V29.5z"/>
	<path class="st1" d="M98.1,19.5h-15V23v1v6.5c0,4-1.5,5.5-1.5,5.5l0.5,1c0,0,2-1.5,2-6.5V24h14V19.5z M97.1,23h-13v-2.5h13V23z"/>
</g>
</svg>
