<?xml version="1.0" encoding="UTF-8"?>
<svg width="33px" height="33px" viewBox="0 0 33 33" version="1.1" xmlns="http://www.w3.org/2000/svg" xmlns:xlink="http://www.w3.org/1999/xlink">
    <!-- Generator: Sketch 61.2 (89653) - https://sketch.com -->
    <title>切片</title>
    <desc>Created with Sketch.</desc>
    <g id="页面" stroke="none" stroke-width="1" fill="none" fill-rule="evenodd">
        <g id="展会管理列表" transform="translate(-1249.000000, -221.000000)" fill="#D4B365">
            <g id="卡片-copy" transform="translate(1078.000000, 140.000000)">
                <g id="编组" transform="translate(137.000000, 61.000000)">
                    <g id="Icon/展位画图备份" transform="translate(34.000000, 20.000000)">
                        <path d="M28.05,29.7 C27.14085,29.7 26.4,28.95915 26.4,28.05 C26.4,27.14085 27.14085,26.4 28.05,26.4 C28.95915,26.4 29.7,27.14085 29.7,28.05 C29.7,28.95915 28.95915,29.7 28.05,29.7 L28.05,29.7 Z M6.6,28.05 C6.6,28.95915 5.85915,29.7 4.95,29.7 C4.04085,29.7 3.3,28.95915 3.3,28.05 C3.3,27.14085 4.04085,26.4 4.95,26.4 C5.85915,26.4 6.6,27.14085 6.6,28.05 L6.6,28.05 Z M6.6,23.1 L6.6,19.8 L28.05,19.8 C28.76115,19.8 29.3898,19.34625 29.61585,18.6714 L32.91585,8.7714 C33.07095,8.3028 33.0099,7.788 32.7459,7.37055 C32.4819,6.95145 32.04465,6.67425 31.5546,6.6132 L6.6,3.49305 L6.6,1.65 C6.6,0.7392 5.8608,0 4.95,0 L1.65,0 C0.7392,0 0,0.7392 0,1.65 C0,2.5608 0.7392,3.3 1.65,3.3 L3.3,3.3 L3.3,23.4036 C1.3827,24.08835 0,25.9017 0,28.05 C0,30.7791 2.2209,33 4.95,33 C7.6791,33 9.9,30.7791 9.9,28.05 C9.9,27.46755 9.7812,26.9181 9.5964,26.4 L23.4036,26.4 C23.2188,26.9181 23.1,27.46755 23.1,28.05 C23.1,30.7791 25.3209,33 28.05,33 C30.7791,33 33,30.7791 33,28.05 C33,25.3209 30.7791,23.1 28.05,23.1 L6.6,23.1 Z" id="icon/购物车"></path>
                    </g>
                </g>
            </g>
        </g>
    </g>
</svg>