<?xml version="1.0" encoding="UTF-8"?>
<svg width="29px" height="38px" viewBox="0 0 29 38" version="1.1" xmlns="http://www.w3.org/2000/svg" xmlns:xlink="http://www.w3.org/1999/xlink">
    <!-- Generator: Sketch 52.5 (67469) - http://www.bohemiancoding.com/sketch -->
    <title>面/导入</title>
    <desc>Created with Sketch.</desc>
    <g id="设计稿" stroke="none" stroke-width="1" fill="none" fill-rule="evenodd">
        <g id="展会管理" transform="translate(-1163.000000, -219.000000)" fill="#D4B365">
            <g id="卡片-copy" transform="translate(1078.000000, 140.000000)">
                <g id="大按钮" transform="translate(19.000000, 61.000000)">
                    <g id="XN/图形按钮">
                        <g id="面/导入" transform="translate(63.030303, 18.504673)">
                            <path d="M30.98725,7.94205 C31.31625,8.288 31.5,8.7579 31.5,9.25 L31.5,35.15 C31.5,36.17305 30.71775,37 29.75,37 L5.25,37 C4.28225,37 3.5,36.17305 3.5,35.15 L3.5,1.85 C3.5,0.82695 4.28225,0 5.25,0 L22.75,0 C23.2155,0 23.66,0.19425 23.98725,0.54205 L30.98725,7.94205 Z M16.26275,25.3574875 C16.947,26.0808375 18.053,26.0808375 18.73725,25.3574875 L23.98725,19.8074875 C24.6715,19.0841375 24.6715,17.9149375 23.98725,17.1915875 C23.646,16.8308375 23.198,16.6495375 22.75,16.6495375 C22.302,16.6495375 21.854,16.8308375 21.51275,17.1915875 L19.25,19.5836375 L19.25,12.9495375 C19.25,11.9264875 18.46775,11.0995375 17.5,11.0995375 C16.53225,11.0995375 15.75,11.9264875 15.75,12.9495375 L15.75,19.5836375 L13.48725,17.1915875 C12.803,16.4682375 11.697,16.4682375 11.01275,17.1915875 C10.3285,17.9149375 10.3285,19.0841375 11.01275,19.8074875 L16.26275,25.3574875 Z" id="合并形状"></path>
                        </g>
                    </g>
                </g>
            </g>
        </g>
    </g>
</svg>