<?xml version="1.0" encoding="UTF-8"?>
<svg width="121px" height="43px" viewBox="0 0 121 43" version="1.1" xmlns="http://www.w3.org/2000/svg" xmlns:xlink="http://www.w3.org/1999/xlink">
    <!-- Generator: Sketch 52.5 (67469) - http://www.bohemiancoding.com/sketch -->
    <title>logo copy</title>
    <desc>Created with Sketch.</desc>
    <g id="logo-copy" stroke="none" stroke-width="1" fill="none" fill-rule="evenodd">
        <path d="M33.654742,27.1 L34.983149,27.1 C34.9814406,27.0979084 34.979734,27.0958152 34.9780293,27.0937203 L39.5453441,27.0937203 L40.0060366,27.0937203 L41.7276298,27.0937203 C43.2413731,27.0937203 44.4799155,25.832943 44.4799155,24.2917415 C44.4799155,22.7506815 43.2413731,21.4897627 41.7276298,21.4897627 L40.0060366,21.4897627 L40.0060366,21.4876426 L39.5845378,21.4876426 C39.5504127,21.4936084 39.5153681,21.4967168 39.4796492,21.4967168 L31.365223,21.4967168 C31.0212908,21.4967168 30.7398792,21.2085189 30.7398792,20.8562928 L30.7398792,20.5556567 C30.7398792,20.2034306 31.0212908,19.9150914 31.365223,19.9150914 L38.2820226,19.9150914 C38.2871979,19.9150725 38.2923753,19.9150631 38.2975547,19.9150631 L41.7149324,19.9150631 C44.085608,19.9150631 46.0251262,21.8896214 46.0251262,24.3029076 C46.0251262,26.7163352 44.085608,28.6908935 41.7149324,28.6908935 L38.2975547,28.6908935 C38.20477,28.6908935 38.1126472,28.6878676 38.0212765,28.6819081 L34.2775228,28.6819081 L34.2775228,39.7657062 C34.2775228,40.1690984 33.9552588,40.4988511 33.5615034,40.4988511 L33.4348061,40.4988511 C33.0409126,40.4988511 32.7187867,40.1690984 32.7187867,39.7657062 L32.7187867,27.827049 C32.7187867,27.4237981 33.0409126,27.0937627 33.4348061,27.0937627 L33.5615034,27.0937627 C33.593086,27.0937627 33.6242086,27.095886 33.654742,27.1 Z M47.4064169,20.6423423 C52.6345453,20.6423423 56.9120295,25.1100454 56.9120295,30.5706815 C56.9120295,36.0311762 52.6345453,40.4988794 47.4064169,40.4988794 C44.3129593,40.4988794 41.5521167,38.9343564 39.8135477,36.5257345 C41.4332862,38.2868652 43.7072136,39.3873599 46.2154896,39.3873599 C51.102308,39.3873599 55.1007269,35.2112468 55.1007269,30.1069359 C55.1007269,25.0029076 51.102308,20.8266532 46.2154896,20.8266532 C45.9429109,20.8266532 45.6729545,20.8402221 45.4063104,20.8658051 C46.0516663,20.7200808 46.7207608,20.6423423 47.4064169,20.6423423 Z M13.024086,40.2746249 C13.3561489,40.2746249 13.6847615,40.2579465 14.0096477,40.2269924 C13.2235169,40.4045189 12.4090932,40.4989359 11.5739673,40.4989359 C5.20832324,40.4989359 6.90072642e-05,35.0590772 6.90072642e-05,28.4101726 C6.90072642e-05,21.761268 5.20832324,16.321268 11.5739673,16.321268 C15.3410738,16.321268 18.7025557,18.2267097 20.8194225,21.1597133 C18.8471949,19.0151196 16.0783475,17.675049 13.024086,17.675049 C7.0737276,17.675049 2.20526513,22.759996 2.20526513,28.974837 C2.20526513,35.1896779 7.0737276,40.2746249 13.024086,40.2746249 Z M13.2966094,28.0252963 C13.2966094,28.3776638 13.0151978,28.6658617 12.6712656,28.6658617 L4.55697748,28.6658617 C4.21304528,28.6658617 3.93163366,28.3776638 3.93163366,28.0252963 L3.93163366,27.7246603 C3.93163366,27.3724341 4.21304528,27.0840949 4.55697748,27.0840949 L12.6712656,27.0840949 C13.0151978,27.0840949 13.2966094,27.3724341 13.2966094,27.7246603 L13.2966094,28.0252963 Z M14.9393136,40.4976921 C14.5178172,40.4256073 14.8687881,40.0897769 14.8687881,40.0897769 L21.4929334,32.5621444 C23.0236525,31.2205189 24.3781271,32.5700596 24.3781271,32.5700596 C24.3781271,32.5700596 30.6911877,39.7571974 31.0097252,40.0897769 C31.3285387,40.4224977 30.9164274,40.4989642 30.9164274,40.4989642 L29.5631949,40.4989642 C29.3244298,40.4989642 29.2178826,40.322003 29.2178826,40.322003 L23.4280351,33.7186108 C22.9315969,33.1601656 22.4351586,33.7186108 22.4351586,33.7186108 C22.4351586,33.7186108 16.8193475,40.1194589 16.6215726,40.322003 C16.4242119,40.5244059 16.2570763,40.4976921 16.2570763,40.4976921 L14.9393136,40.4976921 Z M14.9393136,23.0037557 L16.2570763,23.0037557 C16.2570763,23.0037557 16.4242119,22.9770419 16.6215726,23.1794447 C16.8193475,23.3819889 22.4351586,29.7826956 22.4351586,29.7826956 C22.4351586,29.7826956 22.9315969,30.3414235 23.4280351,29.7826956 L29.2178826,23.1794447 C29.2178826,23.1794447 29.3244298,23.0024836 29.5631949,23.0024836 L30.9164274,23.0024836 C30.9164274,23.0024836 31.3285387,23.07895 31.0097252,23.4118122 C30.6911877,23.7442504 24.3781271,30.9315295 24.3781271,30.9315295 C24.3781271,30.9315295 23.0051586,32.32842 21.4929334,30.9393034 L14.8687881,23.4118122 C14.8687881,23.4118122 14.5178172,23.0759818 14.9393136,23.0037557 Z" id="棕" fill="#FAC52C"></path>
        <path d="M37.2426737,14.0680635 C36.0135267,7.6661358 30.6622059,2.69380163 24.0116157,2.34936699 C16.3168918,1.95134578 9.74367385,7.89636345 9.12674891,15.7072468 C9.12992324,15.5496497 9.1351678,15.3914871 9.14303462,15.2329006 C9.56453099,6.69480868 16.6645504,0.123359919 25.0011799,0.555162039 C32.0469237,0.919486881 37.72085,6.1688526 39.0554974,12.9396411 C40.4959333,12.2448615 42.1193311,11.8925178 43.8207305,11.9804059 C48.7584763,12.2359536 52.6798831,16.1115719 53.2596821,20.9712186 C52.0636482,17.086837 48.6123189,14.1847875 44.4074303,13.967261 C42.576891,13.872337 40.8383987,14.2991101 39.3289699,15.1191455 C39.329079,15.1211156 39.3291878,15.1230858 39.3292961,15.125056 L39.3190781,15.1245269 C39.1911747,15.1942055 39.0649205,15.2667095 38.9403988,15.3419606 L37.4203068,15.2635154 C37.3765562,14.8602645 37.3167959,14.462102 37.24144,14.0690278 C37.2418511,14.0687064 37.2422623,14.068385 37.2426735,14.0680637 Z M88.5684646,27.4236077 L90.0148672,27.4236077 L90.0148672,41.3020877 L88.5684646,41.3020877 L88.5684646,38.7196477 C87.2549441,40.4651677 85.2025769,41.5141877 82.9998213,41.5141877 C79.1028187,41.5141877 75.9322566,38.2940477 75.9322566,34.3359677 C75.9322566,30.4077077 79.1028187,27.2112277 82.9998213,27.2112277 C85.2025769,27.2112277 87.2545306,28.2603877 88.5684646,30.0053477 L88.5684646,27.4236077 Z M88.5684646,34.3359677 C88.5684646,31.2174677 86.0701704,28.6805277 82.9998213,28.6805277 C79.8622042,28.6805277 77.4051254,31.1649677 77.4051254,34.3359677 C77.4051254,37.5227877 79.8622042,40.0187077 82.9998213,40.0187077 C86.1224134,40.0187077 88.5684646,37.5227877 88.5684646,34.3359677 Z M104.676218,27.4236077 L106.122483,27.4236077 L106.122483,41.3020877 L104.676218,41.3020877 L104.676218,38.7196477 C103.362973,40.4651677 101.310193,41.5141877 99.1072991,41.5141877 C95.2101586,41.5141877 92.0402858,38.2940477 92.0402858,34.3359677 C92.0402858,30.4077077 95.2101586,27.2112277 99.1072991,27.2112277 C101.310193,27.2112277 103.362973,28.2601077 104.676218,30.0059077 L104.676218,27.4236077 Z M104.676218,34.3359677 C104.676218,31.2174677 102.178062,28.6805277 99.1072991,28.6805277 C95.9699577,28.6805277 93.5130168,31.1649677 93.5130168,34.3359677 C93.5130168,37.5227877 95.9699577,40.0187077 99.1072991,40.0187077 C102.230029,40.0187077 104.676218,37.5227877 104.676218,34.3359677 Z M117.052341,31.1936257 C119.097402,32.2391457 120.176863,33.9027657 120.176863,36.0068257 C120.176863,38.9917657 117.385925,41.5142857 114.082618,41.5142857 C110.546079,41.5142857 108.815855,39.4753257 108.555742,38.1905457 L108.488336,37.8584657 L109.961894,37.6878057 L110.051355,37.9000457 C110.582195,39.1629857 112.252043,40.0452657 114.111842,40.0452657 C116.514058,40.0452657 118.620736,38.1456057 118.620736,35.9799457 C118.620736,33.8975857 117.32417,32.6769257 113.836842,31.4744657 C111.178234,30.5566257 108.460767,29.1776257 108.460767,25.9045657 C108.460767,23.0194457 111.170791,20.5823257 114.378019,20.5823257 C116.426389,20.5823257 118.41645,21.6162257 119.447665,23.2151657 L119.652778,23.5336657 L118.207478,24.1152257 L118.074045,23.8901057 C117.420386,22.7906857 115.947379,22.0519057 114.407518,22.0519057 C112.135427,22.0519057 109.987258,23.8593057 109.987258,25.7715657 C109.987258,27.2554257 110.697708,28.3489657 112.223234,29.2130457 C112.887231,29.5872657 113.843458,29.9367057 114.767706,30.2741057 C115.569685,30.5665657 116.398958,30.8698057 117.052341,31.1936257 Z M71.6360562,31.1936257 C73.6809798,32.2391457 74.7603025,33.9027657 74.7603025,36.0068257 C74.7603025,38.9917657 71.9700535,41.5142857 68.6661958,41.5142857 C65.1303458,41.5142857 63.3994321,39.4753257 63.1394573,38.1905457 L63.0724649,37.8584657 L64.545885,37.6878057 L64.6356218,37.9000457 C65.1660476,39.1629857 66.8363097,40.0452657 68.6961081,40.0452657 C71.0977733,40.0452657 73.2048648,38.1456057 73.2048648,35.9799457 C73.2048648,33.8975857 71.9081613,32.6769257 68.4206947,31.4744657 C65.7619495,30.5566257 63.0444824,29.1776257 63.0444824,25.9045657 C63.0444824,23.0194457 65.7542302,20.5823257 68.9615967,20.5823257 C71.0101042,20.5823257 73.0003035,21.6162257 74.0320698,23.2151657 L74.2371825,23.5336657 L72.7913312,24.1152257 L72.6578977,23.8901057 C72.004239,22.7906857 70.5309566,22.0519057 68.9915089,22.0519057 C66.7191419,22.0519057 64.5709727,23.8593057 64.5709727,25.7715657 C64.5709727,27.2554257 65.2816991,28.3493857 66.806811,29.2130457 C67.4709459,29.5872657 68.4271734,29.9367057 69.351421,30.2741057 C70.1532626,30.5665657 70.9829488,30.8698057 71.6360562,31.1936257 Z" id="黄" fill="#FAC52C"></path>
    </g>
</svg>